<svg xmlns="http://www.w3.org/2000/svg" width="784.005" height="118.5" viewBox="0 0 784.005 118.5">
  <defs>
    <style>
      .cls-1 {
        fill: #fff7f7;
        fill-rule: evenodd;
      }
    </style>
  </defs>
  <path id="HONDANA_" data-name="HONDANA " class="cls-1" d="M739.538,884l1.167,44.667H696.871l1.667-48.833L674.871,884l2,71.167-2,40.5h23.334l-2-43.333,0.166-6h44.834l0.333,8.833-2,40.5h23.333l-2-43.333,2.334-72.5Zm60.831,13.334q-15.5,18.336-15.5,46.666,0,22.668,13,38.084T830.036,997.5q24.665,0,39.833-18t15.167-47.333q0-23.164-12.75-38.167a40.687,40.687,0,0,0-32.417-15Q815.869,879,800.369,897.336Zm55.084,72.25q-6.918,10.249-19.667,10.25t-20.5-12.084q-7.75-12.081-7.75-30.833t7.25-28.167q7.25-9.414,19.917-9.416,27.663,0,27.666,42.166Q862.369,959.339,855.453,969.586Zm119.082-86.75,1.667,78.833-49.5-81.5-20,1,2,74-2,40.5h20.833L925.2,952.336v-36.5l49.667,80.333L994.535,992,992.7,952.336l2.167-72Zm127,96.916q15.675-17.749,15.67-48.083,0-24-12.67-37.5t-35.16-13.5h-44.5l2,74.5-2,40.5q22.335,1.832,34.16,1.833Q1085.865,997.5,1101.53,979.752Zm-14.41-71.25q7.41,9.837,7.41,30.167t-7.58,31a24.113,24.113,0,0,1-20.75,10.667q-4.83,0-18.83-1l-1.17-27,1.67-53.5q4.5-.165,15.5-0.167Q1079.705,898.669,1087.12,908.5Zm143.08,84.334L1216.37,951l-21.5-71.333-29.84,2.167L1142.7,953.5,1128.03,994l21.34,1.667L1158.2,964h39.83l8.17,32.5Zm-37.17-46.5h-29.66l14.33-45h2.17Zm124.17-63.5,1.66,78.833-49.5-81.5-20,1,2,74-2,40.5h20.84l-2.34-43.333v-36.5l49.67,80.333L1337.2,992l-1.84-39.666,2.17-72Zm141.66,110L1445.03,951l-21.5-71.333-29.83,2.167L1371.36,953.5,1356.7,994l21.33,1.667L1386.86,964h39.84l8.16,32.5Zm-37.16-46.5h-29.67l14.33-45h2.17Z" transform="translate(-674.875 -879)"/>
</svg>
